# File created by Blade
# Date/Time:  Tue Jan 27 17:16:36 2015
#---------------------------------------------------------
:version 1.10
:name HOM
:units
  mass 1.0
  length 1.000000
  angle deg
:documentation
     Acclaim Skeleton File
:root
   axis xyz
   order TX TY TZ RX RY RZ
   position 0.000000 0.000000 0.000000
   orientation 0 0 0
:bonedata
   begin
      id 1
      name Spine_dum
      direction 0.000000 1.000000 0.000000
      length 7.539951
      axis 0.0 0.0 0.0 xyz
   end
   begin
      id 2
      name LeftUpLeg_dum
      direction 1.000000 0.000000 0.000000
      length 3.345476
      axis 0.0 0.0 0.0 xyz
   end
   begin
      id 3
      name RightUpLeg_dum
      direction -1.000000 0.000000 0.000000
      length 3.345476
      axis 0.0 0.0 0.0 xyz
   end
   begin
      id 4
      name Spine
      direction 0.000000 1.000000 0.000000
      length 0.000000
      axis 0.0 0.0 0.0 xyz
      dof rx ry rz
   end
   begin
      id 5
      name Spine_dum1
      direction 0.000000 1.000000 0.000000
      length 15.093809
      axis 0.0 0.0 0.0 xyz
   end
   begin
      id 6
      name Spine_dum2
      direction 0.000000 1.000000 0.000000
      length 9.738928
      axis 0.0 0.0 0.0 xyz
   end
   begin
      id 7
      name Spine_dum3
      direction 0.000000 1.000000 0.000000
      length 9.738928
      axis 0.0 0.0 0.0 xyz
   end
   begin
      id 8
      name Head
      direction 0.000000 1.000000 0.000000
      length 4.527550
      axis 0.0 0.0 0.0 xyz
      dof rx ry rz
   end
   begin
      id 9
      name LeftShoulder
      direction 1.000000 0.000000 0.000000
      length 7.084015
      axis 0.0 0.0 -90.0 xyz
      dof rx ry rz
   end
   begin
      id 10
      name LeftArm
      direction 1.000000 0.000000 0.000000
      length 10.259319
      axis 0.0 0.0 -90.0 xyz
      dof rx ry rz
   end
   begin
      id 11
      name LeftForeArm
      direction 1.000000 0.000000 0.000000
      length 9.896984
      axis 0.0 0.0 -90.0 xyz
      dof ry rz rx
   end
   begin
      id 12
      name LeftHand
      direction 0.000000 0.000000 0.000000
      length 0.000000
      axis 0.0 0.0 -90.0 xyz
      dof rx ry rz
   end
   begin
      id 13
      name LeftHand_dum1
      direction 0.000000 0.000000 0.000000
      length 0.000000
      axis 0.0 0.0 -90.0 xyz
   end
   begin
      id 14
      name LeftHand_dum2
      direction 1.000000 0.000000 0.000000
      length 3.937000
      axis 0.0 0.0 -90.0 xyz
   end
   begin
      id 15
      name LeftHandThumb1
      direction 0.000000 0.000000 1.000000
      length 3.937000
      axis 0.0 0.0 -90.0 xyz
      dof rx rz ry
   end
   begin
      id 16
      name RightShoulder
      direction -1.000000 0.000000 0.000000
      length 7.084015
      axis 0.0 0.0 90.0 xyz
      dof rx ry rz
   end
   begin
      id 17
      name RightArm
      direction -1.000000 0.000000 0.000000
      length 10.259319
      axis 0.0 0.0 90.0 xyz
      dof rx ry rz
   end
   begin
      id 18
      name RightForeArm
      direction -1.000000 0.000000 0.000000
      length 9.896984
      axis 0.0 0.0 90.0 xyz
      dof ry rz rx
   end
   begin
      id 19
      name RightHand
      direction 0.000000 0.000000 0.000000
      length 0.000000
      axis 0.0 0.0 90.0 xyz
      dof rx ry rz
   end
   begin
      id 20
      name RightHand_dum1
      direction 0.000000 0.000000 0.000000
      length 0.000000
      axis 0.0 0.0 90.0 xyz
   end
   begin
      id 21
      name RightHand_dum2
      direction -1.000000 0.000000 0.000000
      length 3.937000
      axis 0.0 0.0 90.0 xyz
   end
   begin
      id 22
      name RightHandThumb1
      direction 0.000000 0.000000 1.000000
      length 3.937000
      axis 0.0 0.0 90.0 xyz
      dof rx rz ry
   end
   begin
      id 23
      name LeftUpLeg
      direction 0.000000 -1.000000 0.000000
      length 19.114733
      axis 0.0 0.0 0.0 xyz
      dof rx ry rz
   end
   begin
      id 24
      name LeftLeg
      direction 0.000000 -1.000000 0.000000
      length 16.045604
      axis 0.0 0.0 0.0 xyz
      dof rx ry rz
   end
   begin
      id 25
      name LeftFoot
      direction 0.000000 -0.258819 0.965926
      length 5.543155
      axis 15.0 0.0 0.0 xyz
      dof rx ry rz
   end
   begin
      id 26
      name LeftToeBase
      direction 0.000000 0.000000 1.000000
      length 2.952750
      axis 0.0 0.0 0.0 xyz
      dof rx ry rz
   end
   begin
      id 27
      name RightUpLeg
      direction 0.000000 -1.000000 0.000000
      length 19.114733
      axis 0.0 0.0 0.0 xyz
      dof rx ry rz
   end
   begin
      id 28
      name RightLeg
      direction 0.000000 -1.000000 0.000000
      length 16.045604
      axis 0.0 0.0 0.0 xyz
      dof rx ry rz
   end
   begin
      id 29
      name RightFoot
      direction 0.000000 -0.258819 0.965926
      length 5.543155
      axis 15.0 0.0 0.0 xyz
      dof rx ry rz
   end
   begin
      id 30
      name RightToeBase
      direction 0.000000 0.000000 1.000000
      length 2.952750
      axis 0.0 0.0 0.0 xyz
      dof rx ry rz
   end
:hierarchy
   begin
      root Spine_dum LeftUpLeg_dum RightUpLeg_dum
      Spine_dum Spine
      LeftUpLeg_dum LeftUpLeg
      RightUpLeg_dum RightUpLeg
      Spine Spine_dum1 Spine_dum2 Spine_dum3
      Spine_dum1 Head
      Spine_dum2 LeftShoulder
      Spine_dum3 RightShoulder
      LeftShoulder LeftArm
      LeftArm LeftForeArm
      LeftForeArm LeftHand
      LeftHand LeftHand_dum1 LeftHand_dum2
      LeftHand_dum1 LeftHandThumb1
      RightShoulder RightArm
      RightArm RightForeArm
      RightForeArm RightHand
      RightHand RightHand_dum1 RightHand_dum2
      RightHand_dum1 RightHandThumb1
      LeftUpLeg LeftLeg
      LeftLeg LeftFoot
      LeftFoot LeftToeBase
      RightUpLeg RightLeg
      RightLeg RightFoot
      RightFoot RightToeBase
   end

# File created by Blade
# Date/Time:  Tue Jan 27 17:16:27 2015
# Frame Rate: 120.000 fps
#------------------------------------------------------
:FULLY-SPECIFIED
:DEGREES
1460
root -4.159244 36.695201 1.314872 3.368566 24.033663 8.148980
Spine 7.680872 0.586312 -9.316587
Head 2.628683 -2.498197 6.577602
LeftShoulder 0.011035 -14.407593 11.574629
LeftArm -0.103398 -14.911997 -30.664649
LeftForeArm 0.537038 -0.000000 57.061407
LeftHand -14.554508 -0.000000 55.711884
LeftHandThumb1 -26.253704 0.000000 33.147579
RightShoulder -5.639807 -20.227493 3.150224
RightArm 8.924850 -16.569994 59.879186
RightForeArm -176.433085 -0.000000 24.276872
RightHand 1.675616 0.000000 2.811466
RightHandThumb1 -24.326973 -0.000000 -32.862282
LeftUpLeg -74.707583 29.787319 1.254770
LeftLeg 109.067850 -0.000000 -0.000000
LeftFoot -7.869981 4.867952 -28.193118
LeftToeBase 15.428011 -0.000000 -0.000000
RightUpLeg -10.444841 -11.918215 2.344428
RightLeg 23.078988 -0.000000 -0.000000
RightFoot -19.706473 -14.076507 3.244595
RightToeBase 6.354078 -0.000000 -0.000000
1461
root -4.177189 36.697514 1.327986 3.366293 24.034296 8.154827
Spine 7.675489 0.734678 -9.362609
Head 2.721925 -2.421077 6.636133
LeftShoulder -0.049962 -14.365155 11.575162
LeftArm -0.025453 -14.890816 -30.595475
LeftForeArm 0.501526 -0.000000 57.015656
LeftHand -14.650945 -0.000000 55.700882
LeftHandThumb1 -26.253704 0.000000 33.147579
RightShoulder -5.656005 -20.214817 3.173165
RightArm 9.015932 -16.655381 59.876988
RightForeArm -176.209148 -0.000000 24.518733
RightHand 1.694253 -0.000000 2.968485
RightHandThumb1 -24.326973 -0.000000 -32.862282
LeftUpLeg -74.701648 29.670728 1.275605
LeftLeg 109.115214 -0.000000 -0.000000
LeftFoot -7.782551 4.815629 -28.134986
LeftToeBase 15.381224 -0.000000 -0.000000
RightUpLeg -10.402606 -11.985920 2.364632
RightLeg 23.016791 -0.000000 -0.000000
RightFoot -19.663278 -14.014254 3.182264
RightToeBase 6.308902 -0.000000 -0.000000
1462
root -4.195237 36.698860 1.339728 3.355364 24.013542 8.161409
Spine 7.682750 0.914498 -9.409665
Head 2.806453 -2.367517 6.656802
LeftShoulder -0.087535 -14.284562 11.587130
LeftArm 0.050758 -14.930814 -30.546596
LeftForeArm 0.426024 -0.000000 57.004699
LeftHand -14.686213 0.000000 55.428483
LeftHandThumb1 -26.253704 0.000000 33.147579
RightShoulder -5.679498 -20.209495 3.200226
RightArm 9.105979 -16.752348 59.836607
RightForeArm -175.886830 -0.000000 24.842043
RightHand 1.638268 0.000000 2.965097
RightHandThumb1 -24.326973 -0.000000 -32.862282
LeftUpLeg -74.663849 29.549556 1.327730
LeftLeg 109.131863 -0.000000 -0.000000
LeftFoot -7.770051 4.703937 -28.351668
LeftToeBase 15.688139 -0.000000 -0.000000
RightUpLeg -10.357806 -12.059773 2.382858
RightLeg 22.961577 -0.000000 -0.000000
RightFoot -19.648323 -13.921476 3.146909
RightToeBase 6.294803 -0.000000 -0.000000
1463
root -4.213748 36.700357 1.347586 3.369387 23.984809 8.176394
Spine 7.669373 1.084433 -9.462714
Head 2.877015 -2.329915 6.676054
LeftShoulder -0.122036 -14.204994 11.571130
LeftArm 0.087800 -14.875567 -30.423869
LeftForeArm 0.277473 0.000000 57.068275
LeftHand -14.697509 -0.000000 55.221122
LeftHandThumb1 -26.253704 0.000000 33.147579
RightShoulder -5.667842 -20.174742 3.203990
RightArm 9.183929 -16.857677 59.811329
RightForeArm -175.660241 -0.000000 25.153723
RightHand 1.476268 -0.000000 3.171628
RightHandThumb1 -24.326973 -0.000000 -32.862282
LeftUpLeg -74.658284 29.435870 1.334659
LeftLeg 109.136185 -0.000000 -0.000000
LeftFoot -7.611470 4.637383 -28.141832
LeftToeBase 15.528313 -0.000000 -0.000000
RightUpLeg -10.353023 -12.149307 2.397745
RightLeg 22.931383 -0.000000 -0.000000
RightFoot -19.627851 -13.825907 3.103933
RightToeBase 6.296643 -0.000000 -0.000000
1464
root -4.230899 36.700891 1.350538 3.385196 23.930578 8.193194
Spine 7.657443 1.246072 -9.502667
Head 2.945911 -2.261856 6.648640
LeftShoulder -0.156700 -14.170932 11.578179
LeftArm 0.085009 -14.892296 -30.356547
LeftForeArm 0.228457 -0.000000 57.051947
LeftHand -14.714095 0.000000 55.030043
LeftHandThumb1 -26.253704 0.000000 33.147579
RightShoulder -5.622251 -20.157185 3.154681
RightArm 9.304842 -16.958953 59.808213
RightForeArm -175.574957 -0.000000 25.467441
RightHand 1.369311 0.000000 3.488000
RightHandThumb1 -24.326973 -0.000000 -32.862282
LeftUpLeg -74.650455 29.321960 1.337869
LeftLeg 109.117598 -0.000000 -0.000000
LeftFoot -7.516689 4.559287 -28.103479
LeftToeBase 15.489786 -0.000000 -0.000000
RightUpLeg -10.363491 -12.231115 2.406609
RightLeg 22.900720 -0.000000 -0.000000
RightFoot -19.627303 -13.736812 3.116433
RightToeBase 6.331929 -0.000000 -0.000000
1465
root -4.247261 36.700790 1.351563 3.416370 23.864036 8.200509
Spine 7.630788 1.412050 -9.537943
Head 2.977070 -2.196945 6.631012
LeftShoulder -0.140047 -13.998703 11.556851
LeftArm 0.010482 -14.911029 -30.182806
LeftForeArm 0.065178 -0.000000 57.221999
LeftHand -14.782408 0.000000 54.760846
LeftHandThumb1 -26.253704 0.000000 33.147579
RightShoulder -5.600234 -20.098193 3.113063
RightArm 9.448122 -17.145460 59.723782
RightForeArm -175.290574 -0.000000 25.766211
RightHand 1.279147 -0.000000 3.415152
RightHandThumb1 -24.326973 -0.000000 -32.862282
LeftUpLeg -74.664573 29.221153 1.325444
LeftLeg 109.077766 -0.000000 -0.000000
LeftFoot -7.461509 4.480111 -28.117294
LeftToeBase 15.496199 -0.000000 -0.000000
RightUpLeg -10.397005 -12.306622 2.423943
RightLeg 22.890777 -0.000000 -0.000000
RightFoot -19.600105 -13.583552 3.071723
RightToeBase 6.248070 -0.000000 -0.000000
1466
root -4.264616 36.698994 1.353613 3.421868 23.769968 8.195676
Spine 7.625217 1.590816 -9.551699
Head 2.975860 -2.127367 6.584984
LeftShoulder -0.133888 -13.849746 11.558460
LeftArm -0.051602 -14.952733 -30.065521
LeftForeArm -0.040505 -0.000000 57.335493
LeftHand -14.757824 -0.000000 54.535705
LeftHandThumb1 -26.253704 0.000000 33.147579
RightShoulder -5.570987 -20.039809 3.049131
RightArm 9.606570 -17.266262 59.676304
RightForeArm -175.100963 -0.000000 26.068110
RightHand 1.148971 0.000000 3.630235
RightHandThumb1 -24.326973 -0.000000 -32.862282
LeftUpLeg -74.663994 29.158574 1.312091
LeftLeg 109.033747 -0.000000 -0.000000
LeftFoot -7.349558 4.463605 -27.856729
LeftToeBase 15.333325 -0.000000 -0.000000
RightUpLeg -10.415499 -12.349516 2.449350
RightLeg 22.888018 -0.000000 -0.000000
RightFoot -19.665401 -13.386487 3.326896
RightToeBase 6.293650 -0.000000 -0.000000
